<svg width="53" height="46" viewBox="0 0 53 46" fill="none" xmlns="http://www.w3.org/2000/svg">
<path d="M22.4548 6.87931C23.3554 5.78392 24.9001 5.46881 26.1579 6.12389L46.9515 16.9539C47.5001 17.2396 47.6603 17.9498 47.2876 18.4434L30.0434 41.2804C29.7346 41.6893 29.1668 41.7987 28.7282 41.5337L8.46894 29.2937C6.90347 28.3479 6.5414 26.2334 7.70301 24.8207L22.4548 6.87931Z" fill="#939090" fill-opacity="0.91"/>
<path d="M26 5L48.5623 16.5196C49.113 16.8007 49.2791 17.5092 48.9108 18.0058L31.8475 41.0154" stroke="#DEDEDE" stroke-width="4" stroke-linecap="round"/>
<path d="M22 6L4.66472 27.0577C4.27471 27.5315 4.39944 28.2415 4.92756 28.554L27.8653 42.1249" stroke="white" stroke-width="4" stroke-linecap="round"/>
<g filter="url(#filter0_d_7_23)">
<path d="M22.6669 28.4318C21.795 28.5013 21.0086 28.4357 20.3077 28.2347C19.606 28.0232 19.0451 27.6988 18.625 27.2614C18.2041 26.8135 17.9694 26.2865 17.9211 25.6804C17.8812 25.1807 18.0119 24.8064 18.3131 24.5577C18.6249 24.3081 19.1476 24.1541 19.8813 24.0955C19.8655 24.3001 19.8686 24.5406 19.8907 24.8171C19.9416 25.4551 20.1879 25.9276 20.6297 26.2348C21.0814 26.5305 21.7112 26.6461 22.5193 26.5817C23.3168 26.5181 23.9074 26.3426 24.2911 26.0551C24.6854 25.7669 24.8626 25.3729 24.8228 24.8731C24.7396 23.8311 23.991 23.3665 22.5768 23.4793L22.0505 23.5213C21.7847 23.5425 21.5599 23.4748 21.3762 23.3182C21.1925 23.1617 21.0901 22.9505 21.0689 22.6847C21.0468 22.4082 21.1092 22.1839 21.256 22.0116C21.4125 21.828 21.629 21.7251 21.9055 21.703L22.4478 21.6598C23.6386 21.5648 24.1955 21.0335 24.1183 20.0659C24.0819 19.6087 23.8788 19.2771 23.5093 19.0712C23.1389 18.8546 22.6241 18.7726 21.9649 18.8252C21.2418 18.8829 20.6938 19.055 20.3207 19.3416C19.9468 19.6175 19.7785 19.9894 19.8158 20.4572C19.8319 20.6593 19.8714 20.8862 19.9343 21.138C19.3193 21.2084 18.8058 21.1424 18.3937 20.9398C17.9922 20.7364 17.7758 20.438 17.7445 20.0446C17.702 19.513 17.8451 19.0254 18.1735 18.5819C18.502 18.1384 18.9816 17.7791 19.6124 17.5041C20.253 17.2176 20.9879 17.0412 21.8173 16.9751C22.6573 16.9081 23.4069 16.982 24.0661 17.197C24.7252 17.4119 25.2449 17.7557 25.625 18.2283C26.0149 18.6894 26.2357 19.2443 26.2874 19.8929C26.3672 20.8924 25.9142 21.7204 24.9286 22.3768C25.6214 22.6105 26.1213 22.9077 26.4283 23.2684C26.7459 23.6283 26.9284 24.1059 26.9759 24.7014C27.0294 25.3713 26.885 25.9766 26.5429 26.5176C26.2009 27.0585 25.6953 27.4947 25.0262 27.8263C24.3571 28.1579 23.5707 28.3597 22.6669 28.4318ZM29.8411 27.7151C29.5434 27.7389 29.281 27.6688 29.0539 27.505C28.8366 27.3298 28.7169 27.1039 28.6949 26.8274L27.9596 17.6087C27.9376 17.3323 28.0203 17.0956 28.208 16.8987C28.3947 16.6912 28.6423 16.5752 28.9506 16.5506L32.4914 16.2682C33.4377 16.1927 34.2868 16.3069 35.0387 16.6107C35.8012 16.9137 36.4054 17.3792 36.8514 18.007C37.3072 18.6234 37.5686 19.3516 37.6356 20.1916L37.8366 22.7116C37.9036 23.5516 37.7614 24.3173 37.4099 25.0088C37.0584 25.7002 36.5307 26.2613 35.8267 26.692C35.1325 27.1112 34.3176 27.3581 33.3819 27.4327L29.8411 27.7151ZM33.0761 25.6113C34.0011 25.5375 34.6864 25.2742 35.1318 24.8213C35.5763 24.3578 35.766 23.7167 35.7007 22.898L35.4958 20.3302C35.4322 19.5327 35.1447 18.9457 34.6331 18.5692C34.1216 18.1927 33.4032 18.0413 32.4782 18.1151L30.1655 18.2995L30.7634 25.7957L33.0761 25.6113Z" fill="white"/>
</g>
<defs>
<filter id="filter0_d_7_23" x="13.2558" y="15.7417" width="28.9383" height="21.0488" filterUnits="userSpaceOnUse" color-interpolation-filters="sRGB">
<feFlood flood-opacity="0" result="BackgroundImageFix"/>
<feColorMatrix in="SourceAlpha" type="matrix" values="0 0 0 0 0 0 0 0 0 0 0 0 0 0 0 0 0 0 127 0" result="hardAlpha"/>
<feOffset dy="4"/>
<feGaussianBlur stdDeviation="2"/>
<feComposite in2="hardAlpha" operator="out"/>
<feColorMatrix type="matrix" values="0 0 0 0 0 0 0 0 0 0 0 0 0 0 0 0 0 0 0.25 0"/>
<feBlend mode="normal" in2="BackgroundImageFix" result="effect1_dropShadow_7_23"/>
<feBlend mode="normal" in="SourceGraphic" in2="effect1_dropShadow_7_23" result="shape"/>
</filter>
</defs>
</svg>
